<svg width="14" height="14" viewBox="0 0 14 14" fill="none" xmlns="http://www.w3.org/2000/svg" id="arrow-top-left">
  <path
    d="M2.81603 13.4796L10.3891 5.81848L12.9159 11.2545C13.0614 11.5677 13.4749 11.6308 13.7263 11.3764L13.7326 11.3701C13.8323 11.2692 13.8884 11.1347 13.8874 10.9949L13.8863 0.817594C13.8863 0.405583 13.557 0.0724009 13.1497 0.0724006L3.09136 0.0713495C2.95422 0.0713493 2.81915 0.128106 2.72045 0.227955C2.46798 0.48336 2.53239 0.905882 2.84616 1.04882L8.2717 3.54611L0.634185 11.2724C0.519898 11.388 0.519898 11.5772 0.634185 11.6928L2.40044 13.4796C2.51473 13.5952 2.70175 13.5952 2.81603 13.4796Z"
    fill="white"></path>
</svg>
