<svg id="youtube" width="17" height="11" viewBox="0 0 17 11" class="youtubeIcon" fill="none" xmlns="http://www.w3.org/2000/svg">
  <path fill-rule="evenodd" clip-rule="evenodd" d="M16.6444 1.71753C16.4489 1.04158 15.873 0.508753 15.1413 0.327892C13.816 1.18977e-07 8.5 0 8.5 0C8.5 0 3.18396 1.18977e-07 1.85796 0.327892C1.12696 0.508753 0.551083 1.04093 0.355583 1.71753C0 2.94322 0 5.5 0 5.5C0 5.5 0 8.05678 0.355583 9.28247C0.551083 9.95842 1.12696 10.4912 1.85867 10.6721C3.18396 11 8.5 11 8.5 11C8.5 11 13.816 11 15.142 10.6721C15.873 10.4912 16.4489 9.95907 16.6451 9.28247C17 8.05678 17 5.5 17 5.5C17 5.5 17 2.94322 16.6444 1.71753ZM6.76175 7.82192V3.17808L11.2044 5.5L6.76175 7.82192Z" fill="currentColor"></path>
</svg>
